<svg width="20" height="20" viewBox="0 0 20 20" fill="none" xmlns="http://www.w3.org/2000/svg">
    <path fill-rule="evenodd" clip-rule="evenodd"
        d="M15.9007 14.3346L19.6772 18.1C19.8875 18.3086 20.0058 18.5925 20.0058 18.8887C20.0058 19.1848 19.8875 19.4687 19.6772 19.6773C19.4687 19.8876 19.1848 20.0059 18.8886 20.0059C18.5924 20.0059 18.3085 19.8876 18.1 19.6773L14.3345 15.9007C12.7822 17.1192 10.8653 17.7804 8.89182 17.7779C3.98421 17.7779 0.00579834 13.7995 0.00579834 8.89189C0.00579834 3.98427 3.98421 0.00585938 8.89182 0.00585938C13.7994 0.00585938 17.7779 3.98427 17.7779 8.89189C17.7803 10.8653 17.1192 12.7822 15.9007 14.3346ZM8.89185 2.22717C5.21113 2.22717 2.22733 5.21098 2.22733 8.89169C2.22733 12.5724 5.21113 15.5562 8.89185 15.5562C12.5726 15.5562 15.5564 12.5724 15.5564 8.89169C15.5564 5.21098 12.5726 2.22717 8.89185 2.22717Z"
        fill="white" />
</svg>